<svg xmlns="http://www.w3.org/2000/svg">
    <symbol id="theme-system" width="20" height="20" viewBox="0 0 24 24" fill="none" stroke="currentColor" stroke-width="2" stroke-linecap="round" stroke-linejoin="round">
        <rect width="18" height="12" x="3" y="4" rx="2" ry="2"/>
        <line x1="2" x2="22" y1="20" y2="20"/>
    </symbol>
    <symbol id="theme-light" width="20" height="20" viewBox="0 0 24 24" fill="none" stroke="currentColor" stroke-width="2" stroke-linecap="round" stroke-linejoin="round">
        <circle cx="12" cy="12" r="4"/>
        <path d="M12 3v1"/>
        <path d="M12 20v1"/>
        <path d="M3 12h1"/>
        <path d="M20 12h1"/>
        <path d="m18.364 5.636-.707.707"/>
        <path d="m6.343 17.657-.707.707"/>
        <path d="m5.636 5.636.707.707"/>
        <path d="m17.657 17.657.707.707"/>
    </symbol>
    <symbol id="theme-dark" width="20" height="20" viewBox="0 0 24 24" fill="none" stroke="currentColor" stroke-width="2" stroke-linecap="round" stroke-linejoin="round">
        <path d="M12 3a6 6 0 0 0 9 9 9 9 0 1 1-9-9Z"/>
    </symbol>
</svg>
